<svg version="1.1" xmlns="http://www.w3.org/2000/svg" xmlns:xlink="http://www.w3.org/1999/xlink" x="0px" y="0px" width="452.8px"
   height="112.4px" viewBox="0 0 452.8 112.4" style="enable-background:new 0 0 452.8 112.4;" xml:space="preserve">
<style type="text/css">
  .st0{fill:#ffffff;}
</style>
<defs>
</defs>
<path class="st0" d="M40.9,12.6L24.2,56.4L7.4,12.6H0l19.7,48.5h8.9l19.7-48.5H40.9z"/>
<path class="st0" d="M54.4,12.6v48.5h6.8V12.6H54.4z"/>
<path class="st0" d="M91.5,42.5c5.1,0,8.9-1.2,11.5-3.6c2.6-2.4,3.9-6,3.9-10.7c0-2.7-0.5-5.2-1.4-7.4c-0.9-2.2-2.3-4-4-5.3
  c-1.4-1-2.9-1.8-4.7-2.2c-1.8-0.4-4.6-0.6-8.4-0.6H75v48.5h6.6V42.5h1l14.2,18.6h8.3L90.3,42.5H91.5z M81.7,37.5V18.3h5.2
  c5.2,0,8.7,0.7,10.6,2.2c1.9,1.5,2.8,4,2.8,7.7c0,3.4-0.9,5.8-2.7,7.2s-5.3,2-10.7,2H81.7z"/>
<path class="st0" d="M111.7,12.6v6.5h16.2v42h6.9v-42h16.1v-6.5H111.7z"/>
<path class="st0" d="M195.7,12.6v35.6c0,5.8-1.2,10-3.7,12.8c0,0-0.1,0.1-0.2,0.1h8.3c1.7-3.4,2.5-7.7,2.5-12.9V12.6H195.7z
   M165.1,48.2V12.6h-6.9v35.6c0,5.2,0.8,9.5,2.5,12.9h8.3c-0.1,0-0.1-0.1-0.2-0.1C166.3,58.3,165.1,54,165.1,48.2z"/>
<path class="st0" d="M232.8,10.3l-22.2,50.8h7.3l3.7-8.8H244l3.7,8.8h7.3L232.8,10.3z M223.7,46.5l9.1-21.1l9.1,21.1H223.7z"/>
<path class="st0" d="M361.4,69.8V12.6h6.8v57.2H361.4z"/>
<path class="st0" d="M382.1,69.8V12.6h30.2v6.2h-23.4v16.4h23.4v6.3h-23.4v28.3H382.1z"/>
<path class="st0" d="M422.7,69.8V12.6h30.2v6.2h-23.4v16.4h23.4v6.3h-23.4v21.9h23.4v6.3H422.7z"/>
<rect x="11.7" y="63.3" class="st0" width="253.7" height="6.5"/>
<polygon class="st0" points="353.3,63.3 353.3,69.8 324.9,69.8 324.9,25 309.7,9.8 293.2,26.3 293.2,69.8 264.7,69.8 264.7,63.3 
  286.4,63.3 286.4,33.1 273.3,46.2 268.4,41.2 309.6,0 309.7,0 309.7,0 350.9,41.2 346,46.2 331.7,31.8 331.7,63.3 "/>
<path class="st0" d="M22.9,107.2c1.9,0,3.3-0.2,4.3-0.7c0.9-0.5,1.4-1.1,1.4-1.9c0-0.8-0.4-1.2-1.2-1.2h-6.2v-7.4
  c0-0.9,0.1-1.8,0.4-2.6c0.3-0.8,0.7-1.5,1.3-2.1c0.6-0.6,1.2-1.1,2-1.4c0.8-0.3,1.7-0.5,2.7-0.5h4.2l0.2,5h-4.4
  c-1.2,0-1.8,0.6-1.8,1.8v2.2h2.4c1.9,0,3.2,0.5,3.9,1.4c0.7,0.9,1.1,2.3,1.1,4c0,1.2-0.2,2.3-0.7,3.4c-0.5,1-1.1,1.9-2,2.7
  c-0.9,0.8-1.9,1.3-3,1.8c-1.2,0.4-2.5,0.6-3.9,0.6h-3.2c-2.7,0-4.8-0.8-6.3-2.5c-1.5-1.7-2.3-4-2.3-6.9v-6.6h4.6v6.4
  c0,0.7,0.1,1.3,0.2,1.9c0.1,0.6,0.4,1.1,0.7,1.5c0.4,0.4,0.8,0.7,1.4,0.9c0.6,0.2,1.3,0.3,2.2,0.3H22.9z"/>
<path class="st0" d="M35.9,107.4h0.4c0.9,0,1.7-0.1,2.3-0.4c0.6-0.3,1.2-0.6,1.6-1c0.4-0.4,0.7-0.9,0.9-1.4c0.2-0.5,0.3-1.1,0.3-1.6
  V92.7H46V103c0,1.2-0.2,2.4-0.7,3.6c-0.5,1.1-1.1,2.1-1.9,3c-0.8,0.9-1.7,1.5-2.8,2.1c-1.1,0.5-2.3,0.8-3.5,0.8h-1L35.9,107.4z
   M45.4,88.7h-4.8v-4.4h4.8V88.7z"/>
<path class="st0" d="M55.6,103.4c-0.7,0-1.4-0.1-2-0.3c-0.6-0.2-1.2-0.5-1.7-0.9c-0.5-0.4-0.9-1-1.1-1.7c-0.3-0.7-0.4-1.6-0.4-2.7
  v-17H55v15.8c0,1.2,0.5,1.8,1.6,1.8h1c0.5,0,0.8,0.8,0.8,2.4c0,1.7-0.3,2.6-0.8,2.6H55.6z"/>
<path class="st0" d="M117.8,98c0.3,0.2,0.6,0.3,1,0.3c0.4,0,0.8,0,1.3,0h1.8c0.3,0,0.5,0.2,0.6,0.6c0.1,0.4,0.2,1,0.2,1.8
  c0,0.9-0.1,1.6-0.2,2c-0.1,0.4-0.3,0.6-0.6,0.6h-2c-0.8,0-1.5-0.1-2.1-0.3c-0.6-0.2-1.1-0.4-1.5-0.7c-0.4-0.3-0.8-0.7-1-1.1
  c-0.3-0.4-0.5-0.9-0.7-1.4l-2.6,1.5c-0.7,0.4-1.4,0.7-2,1c-0.7,0.3-1.3,0.5-2.1,0.6c-0.7,0.1-1.5,0.2-2.4,0.3
  c-0.9,0.1-1.8,0.1-2.9,0.1h-1c-0.3,0-0.5-0.2-0.6-0.6c-0.1-0.4-0.2-1-0.2-1.8c0-0.9,0.1-1.6,0.2-2c0.1-0.4,0.3-0.6,0.6-0.6h1.2
  c0.9,0,1.7,0,2.4,0c0.7,0,1.4-0.1,2-0.1c0.6-0.1,1.2-0.2,1.7-0.4c0.5-0.2,1.1-0.4,1.6-0.7l3.6-2c-0.1-0.2-0.3-0.4-0.4-0.5
  c-0.1-0.1-0.3-0.2-0.4-0.3c-0.2-0.1-0.4-0.1-0.6-0.1c-0.2,0-0.6,0-1,0h-7.4l0.2-5h8c0.7,0,1.4,0.1,2.1,0.3c0.7,0.2,1.3,0.6,1.9,1.2
  c0.6,0.6,1.1,1.4,1.6,2.5c0.5,1,0.9,2.4,1.3,4L117.8,98z M113,111.7h-4.8v-4.4h4.8V111.7z"/>
<path class="st0" d="M190.2,98.4c0.7,0,1.3-0.1,1.8-0.4c0.4-0.3,0.7-0.7,0.7-1.4v-0.4c0-0.9,0.1-1.8,0.4-2.6
  c0.3-0.8,0.7-1.5,1.2-2.1c0.5-0.6,1.2-1,2-1.4c0.8-0.3,1.6-0.5,2.6-0.5c1,0,1.9,0.2,2.7,0.5c0.8,0.3,1.4,0.8,2,1.4
  c0.5,0.6,0.9,1.3,1.2,2.2c0.3,0.8,0.4,1.8,0.4,2.8c0,2.2-0.6,4-1.7,5.2c-1.1,1.2-2.6,1.8-4.5,1.8c-1,0-1.9-0.2-2.8-0.6s-1.5-0.9-2-1.6c-0.5,0.8-1.1,1.4-1.8,1.7c-0.7,0.3-1.4,0.5-2.2,0.5h-0.2c-0.3,0-0.5-0.2-0.6-0.6c-0.1-0.4-0.2-1-0.2-1.8
  c0-0.9,0.1-1.6,0.2-2c0.1-0.4,0.3-0.6,0.6-0.6H190.2z M200.7,96.5c0-0.5-0.1-1-0.4-1.4c-0.2-0.4-0.7-0.6-1.4-0.6
  c-0.7,0-1.2,0.2-1.4,0.6c-0.2,0.4-0.4,0.9-0.4,1.4c0,1.2,0.6,1.8,1.8,1.8C200.1,98.4,200.7,97.8,200.7,96.5z"/>
<path class="st0" d="M282.6,107.2c0.9,0,1.7,0,2.4-0.1c0.6-0.1,1.1-0.2,1.5-0.4c0.4-0.2,0.6-0.4,0.8-0.7c0.1-0.3,0.2-0.6,0.2-1
  c0-0.4-0.1-0.8-0.3-1.1s-0.7-0.5-1.3-0.5h-4.6l0.2-5h12.4c0.5,0,0.8,0.8,0.8,2.4c0,1.7-0.3,2.6-0.8,2.6h-2.8
  c0.5,0.4,0.8,1.2,0.8,2.4c0,0.7-0.2,1.4-0.5,2.1c-0.3,0.8-0.8,1.4-1.5,2.1c-0.7,0.6-1.5,1.2-2.6,1.6c-1.1,0.4-2.4,0.6-4,0.6h-4
  c-2.7,0-4.8-0.8-6.3-2.5c-1.5-1.7-2.3-4-2.3-6.9v-6.6h4.6v6.4c0,0.7,0.1,1.3,0.2,1.9c0.1,0.6,0.4,1.1,0.7,1.5
  c0.4,0.4,0.8,0.7,1.4,0.9c0.6,0.2,1.3,0.3,2.2,0.3H282.6z"/>
<path class="st0" d="M407.3,98.4c0.4,0,0.7-0.1,0.8-0.3c0.1-0.2,0.2-0.4,0.2-0.5c0-0.3-0.1-0.6-0.2-0.8c-0.1-0.2-0.3-0.5-0.6-0.8
  l-6.2-6.2v-5.2l12.1-4.4l1,4.6l-8.6,3l4.6,4.6c0.6,0.6,1.1,1.2,1.5,1.7c0.4,0.5,0.7,1,0.9,1.5c0.2,0.5,0.4,0.9,0.5,1.4
  c0.1,0.5,0.1,0.9,0.1,1.5c0,0.9-0.1,1.7-0.4,2.3c-0.3,0.6-0.7,1.2-1.2,1.6c-0.5,0.4-1.1,0.7-1.7,0.9c-0.7,0.2-1.4,0.3-2.1,0.3h-9.2
  c-0.3,0-0.5-0.2-0.6-0.6c-0.1-0.4-0.2-1-0.2-1.8c0-0.9,0.1-1.6,0.2-2c0.1-0.4,0.3-0.6,0.6-0.6H407.3z M401,78.5l11-4l0.6,3.2
  l-11.4,4.2L401,78.5z"/>
<path class="st0" d="M423.7,98.4c0.7,0,1.2-0.1,1.4-0.4c0.2-0.3,0.4-0.5,0.4-0.8c0-0.1,0-0.3-0.1-0.6c-0.1-0.3-0.2-0.7-0.4-1.3
  c-0.2-0.6-0.5-1.5-0.9-2.6c-0.4-1.1-0.9-2.6-1.6-4.5l4.4-1.8l3.6,10c0.3,0.7,0.6,1.2,0.9,1.5c0.3,0.3,0.9,0.5,1.7,0.5h0.4
  c0.5,0,0.8,0.8,0.8,2.4c0,1.7-0.3,2.6-0.8,2.6h-0.4c-0.8,0-1.6-0.1-2.4-0.4c-0.8-0.3-1.5-0.9-2.1-1.8c-0.5,0.8-1.1,1.4-1.9,1.7
  c-0.8,0.3-1.6,0.5-2.5,0.5h-7.8l-0.2-5H423.7z"/>
<path class="st0" d="M437,98.4c0.7,0,1.2-0.2,1.5-0.5c0.3-0.3,0.5-0.8,0.5-1.5v-3.8h4.6v4.2c0,2.2-0.5,3.9-1.6,5
  c-1.1,1.1-2.6,1.7-4.6,1.7h-3.8c-0.3,0-0.5-0.2-0.6-0.6c-0.1-0.4-0.2-1-0.2-1.8c0-0.9,0.1-1.6,0.2-2c0.1-0.4,0.3-0.6,0.6-0.6H437z
   M442.4,88.5h-4.8v-4.4h4.8V88.5z"/>
<path class="st0" d="M452.2,106.4c-0.4,1.1-1.1,2.1-1.9,3c-0.8,0.9-1.7,1.5-2.8,2.1c-1.1,0.5-2.3,0.8-3.5,0.8h-2.4l-0.2-5h1.4
  c1,0,1.9-0.1,2.6-0.4c0.7-0.3,1.2-0.6,1.7-1c0.4-0.4,0.7-0.9,0.9-1.4c0.2-0.5,0.3-1.1,0.3-1.6V92.5h4.6v10.3
  C452.8,104,452.6,105.2,452.2,106.4z M452.8,88.5H448v-4.4h4.8V88.5z"/>
<rect x="293.9" y="98.4" class="st0" width="106.1" height="5"/>
<rect x="121.3" y="98.4" class="st0" width="69.5" height="5"/>
<rect x="57.3" y="98.4" class="st0" width="44.3" height="5"/>
</svg>